<?xml version="1.0" standalone="no"?>
<!DOCTYPE svg PUBLIC "-//W3C//DTD SVG 20010904//EN"
 "http://www.w3.org/TR/2001/REC-SVG-20010904/DTD/svg10.dtd">
<svg version="1.0" xmlns="http://www.w3.org/2000/svg"
 width="480.000000pt" height="480.000000pt" viewBox="0 0 480.000000 480.000000"
 preserveAspectRatio="xMidYMid meet">
<metadata>
Created by potrace 1.14, written by Peter Selinger 2001-2017
</metadata>
<g transform="translate(0.000000,480.000000) scale(0.100000,-0.100000)"
fill="#000000" stroke="none">
<path d="M2200 4200 l0 -200 -100 0 -100 0 0 -200 0 -200 -150 0 -150 0 0
-200 0 -200 -750 0 -750 0 0 -150 0 -150 200 0 200 0 0 -150 0 -150 200 0 200
0 0 -150 0 -150 150 0 150 0 0 -250 0 -250 -100 0 -100 0 0 -250 0 -250 -100
0 -100 0 0 -200 0 -200 -100 0 -100 0 0 -250 0 -250 150 0 150 0 0 100 0 100
250 0 250 0 0 150 0 150 250 0 250 0 0 150 0 150 400 0 400 0 0 -150 0 -150
250 0 250 0 0 -150 0 -150 250 0 250 0 0 -100 0 -100 150 0 150 0 0 250 0 250
-100 0 -100 0 0 200 0 200 -100 0 -100 0 0 250 0 250 -100 0 -100 0 0 250 0
250 150 0 150 0 0 150 0 150 200 0 200 0 0 150 0 150 200 0 200 0 0 150 0 150
-750 0 -750 0 0 200 0 200 -150 0 -150 0 0 200 0 200 -100 0 -100 0 0 200 0
200 -200 0 -200 0 0 -200z"/>
</g>
</svg>
